<svg version="1.1" id="Layer_1" xmlns="http://www.w3.org/2000/svg" xmlns:xlink="http://www.w3.org/1999/xlink" x="0px" y="0px"
	 width="100%" viewBox="0 0 266 190" enable-background="new 0 0 266 190" xml:space="preserve">
<path fill="#FEFEFE" opacity="1.000000" stroke="none" 
	d="
M167.000000,191.000000 
	C111.363594,191.000000 56.227184,191.000000 1.045387,191.000000 
	C1.045387,127.731689 1.045387,64.463341 1.045387,1.097493 
	C89.552940,1.097493 178.106033,1.097493 266.829559,1.097493 
	C266.829559,64.332962 266.829559,127.666443 266.829559,191.000000 
	C233.796921,191.000000 200.648453,191.000000 167.000000,191.000000 
M76.024193,122.949608 
	C76.759064,121.253403 78.002861,119.593895 78.128342,117.853737 
	C78.439102,113.544373 78.283791,109.197609 78.234215,104.866798 
	C78.109695,93.988693 80.304558,94.624176 67.046295,94.684669 
	C64.106148,94.698082 62.866890,96.140953 62.903847,99.028923 
	C62.967796,104.025902 63.047119,109.030281 62.825706,114.018494 
	C62.762970,115.431877 61.678936,116.799919 61.063286,118.188759 
	C59.840805,117.324684 58.150219,116.730782 57.470650,115.553352 
	C52.491825,106.927032 47.698502,98.193230 42.882374,89.473602 
	C40.298016,84.794601 40.907806,83.793480 46.388435,83.783340 
	C55.384300,83.766708 64.381012,83.752922 73.375969,83.857872 
	C79.348526,83.927559 78.024376,79.643028 78.285446,76.135490 
	C78.561684,72.424232 77.380836,70.531914 73.277313,70.688545 
	C67.455093,70.910789 61.614246,70.606148 55.787785,70.763931 
	C41.291233,71.156494 30.488554,82.769508 30.731974,97.543465 
	C30.966892,111.801598 42.305058,123.008286 56.607048,123.086151 
	C62.770603,123.119713 68.934486,123.093513 76.024193,122.949608 
M152.624054,115.243752 
	C152.639618,107.582779 152.652512,99.921799 152.671356,92.260834 
	C152.703598,79.154427 154.002655,80.327133 139.965225,80.269630 
	C136.512421,80.255486 134.726669,81.520897 134.799164,85.264969 
	C134.940994,92.590202 134.692520,99.923775 134.873840,107.247253 
	C135.095169,116.187836 141.854996,122.952034 150.769821,123.183067 
	C158.093430,123.372871 165.426239,123.187180 172.752090,123.323029 
	C176.052261,123.384232 177.791580,122.148872 177.789368,118.729271 
	C177.782043,107.403976 177.942032,96.075043 177.646606,84.757713 
	C177.607605,83.263863 175.428925,80.732750 174.021118,80.568512 
	C169.421371,80.031914 164.699814,80.105026 160.064240,80.457893 
	C156.813156,80.705368 155.272583,82.762138 157.011612,86.042610 
	C159.110596,90.002098 161.364334,93.879356 163.537613,97.799675 
	C170.641724,110.614510 170.639465,110.616013 157.704575,117.445816 
	C157.265076,117.677879 156.695496,118.194023 156.396805,118.070259 
	C155.123077,117.542549 153.928497,116.823845 152.624054,115.243752 
M108.517380,123.177277 
	C112.683693,123.186882 116.852745,123.106682 121.015503,123.233246 
	C124.632080,123.343193 126.110725,121.774338 126.047073,118.152069 
	C125.915329,110.654839 126.107803,103.152000 125.982101,95.654564 
	C125.833382,86.784477 119.240059,79.880943 110.420616,79.117935 
	C104.513252,78.606865 102.906372,79.736702 103.341454,85.530983 
	C103.702919,90.345009 102.090088,92.077278 97.347626,92.875671 
	C89.741707,94.156120 84.621140,101.532440 85.301979,108.891701 
	C86.057243,117.055389 92.284180,122.900726 100.530098,123.141663 
	C102.861473,123.209770 105.196037,123.168427 108.517380,123.177277 
M214.145004,81.036819 
	C207.018265,80.814575 199.888855,80.654091 192.765808,80.346283 
	C188.672058,80.169373 187.109375,82.018707 187.173325,86.030235 
	C187.305969,94.353058 187.178070,102.679764 187.189636,111.004829 
	C187.208923,124.901939 185.755829,123.218590 199.939484,123.324219 
	C200.272415,123.326698 200.605484,123.312218 200.938354,123.316521 
	C203.863129,123.354271 205.132401,121.885063 205.103134,118.993622 
	C205.047531,113.499672 205.559998,107.955399 204.983780,102.522476 
	C204.249466,95.598885 206.079269,90.690094 212.793732,87.833893 
	C215.432007,86.711617 217.155853,84.553375 214.145004,81.036819 
M230.276581,123.340195 
	C237.207321,123.364662 237.210022,123.364670 237.223679,116.451881 
	C237.235840,110.301155 237.318192,104.149345 237.233109,97.999908 
	C237.066025,85.925507 239.912598,86.444061 224.828629,86.392853 
	C221.006805,86.379883 219.472580,87.952789 219.557434,91.797935 
	C219.718735,99.108536 219.580505,106.425613 219.576569,113.740005 
	C219.571381,123.339661 219.575485,123.339661 230.276581,123.340195 
M230.445251,68.650551 
	C225.009232,69.532310 222.162186,72.842293 223.281876,77.141525 
	C224.226547,80.768738 226.733826,82.972092 230.428345,82.808586 
	C234.000778,82.650490 236.717697,80.666283 237.169693,76.784531 
	C237.689590,72.319725 235.749069,69.480698 230.445251,68.650551 
z"/>
<path fill="#040404" opacity="1.000000" stroke="none" 
	d="
M75.561203,123.022034 
	C68.934486,123.093513 62.770603,123.119713 56.607048,123.086151 
	C42.305058,123.008286 30.966892,111.801598 30.731974,97.543465 
	C30.488554,82.769508 41.291233,71.156494 55.787785,70.763931 
	C61.614246,70.606148 67.455093,70.910789 73.277313,70.688545 
	C77.380836,70.531914 78.561684,72.424232 78.285446,76.135490 
	C78.024376,79.643028 79.348526,83.927559 73.375969,83.857872 
	C64.381012,83.752922 55.384300,83.766708 46.388435,83.783340 
	C40.907806,83.793480 40.298016,84.794601 42.882374,89.473602 
	C47.698502,98.193230 52.491825,106.927032 57.470650,115.553352 
	C58.150219,116.730782 59.840805,117.324684 61.063286,118.188759 
	C61.678936,116.799919 62.762970,115.431877 62.825706,114.018494 
	C63.047119,109.030281 62.967796,104.025902 62.903847,99.028923 
	C62.866890,96.140953 64.106148,94.698082 67.046295,94.684669 
	C80.304558,94.624176 78.109695,93.988693 78.234215,104.866798 
	C78.283791,109.197609 78.439102,113.544373 78.128342,117.853737 
	C78.002861,119.593895 76.759064,121.253403 75.561203,123.022034 
z"/>
<path fill="#080808" opacity="1.000000" stroke="none" 
	d="
M152.664551,115.709297 
	C153.928497,116.823845 155.123077,117.542549 156.396805,118.070259 
	C156.695496,118.194023 157.265076,117.677879 157.704575,117.445816 
	C170.639465,110.616013 170.641724,110.614510 163.537613,97.799675 
	C161.364334,93.879356 159.110596,90.002098 157.011612,86.042610 
	C155.272583,82.762138 156.813156,80.705368 160.064240,80.457893 
	C164.699814,80.105026 169.421371,80.031914 174.021118,80.568512 
	C175.428925,80.732750 177.607605,83.263863 177.646606,84.757713 
	C177.942032,96.075043 177.782043,107.403976 177.789368,118.729271 
	C177.791580,122.148872 176.052261,123.384232 172.752090,123.323029 
	C165.426239,123.187180 158.093430,123.372871 150.769821,123.183067 
	C141.854996,122.952034 135.095169,116.187836 134.873840,107.247253 
	C134.692520,99.923775 134.940994,92.590202 134.799164,85.264969 
	C134.726669,81.520897 136.512421,80.255486 139.965225,80.269630 
	C154.002655,80.327133 152.703598,79.154427 152.671356,92.260834 
	C152.652512,99.921799 152.639618,107.582779 152.664551,115.709297 
z"/>
<path fill="#050505" opacity="1.000000" stroke="none" 
	d="
M108.023262,123.177277 
	C105.196037,123.168427 102.861473,123.209770 100.530098,123.141663 
	C92.284180,122.900726 86.057243,117.055389 85.301979,108.891701 
	C84.621140,101.532440 89.741707,94.156120 97.347626,92.875671 
	C102.090088,92.077278 103.702919,90.345009 103.341454,85.530983 
	C102.906372,79.736702 104.513252,78.606865 110.420616,79.117935 
	C119.240059,79.880943 125.833382,86.784477 125.982101,95.654564 
	C126.107803,103.152000 125.915329,110.654839 126.047073,118.152069 
	C126.110725,121.774338 124.632080,123.343193 121.015503,123.233246 
	C116.852745,123.106682 112.683693,123.186882 108.023262,123.177277 
M103.529900,97.109100 
	C103.383377,103.211609 103.139503,109.314888 103.187180,115.415878 
	C103.195023,116.420052 104.295982,117.772903 105.252785,118.270691 
	C105.777962,118.543922 107.438622,117.605202 107.935059,116.807182 
	C111.424728,111.197533 114.751503,105.486343 118.115540,99.798851 
	C119.610764,97.270912 118.483673,95.915543 115.929947,95.895348 
	C111.987854,95.864159 108.042877,96.196648 103.529900,97.109100 
z"/>
<path fill="#080808" opacity="1.000000" stroke="none" 
	d="
M214.470764,81.262024 
	C217.155853,84.553375 215.432007,86.711617 212.793732,87.833893 
	C206.079269,90.690094 204.249466,95.598885 204.983780,102.522476 
	C205.559998,107.955399 205.047531,113.499672 205.103134,118.993622 
	C205.132401,121.885063 203.863129,123.354271 200.938354,123.316521 
	C200.605484,123.312218 200.272415,123.326698 199.939484,123.324219 
	C185.755829,123.218590 187.208923,124.901939 187.189636,111.004829 
	C187.178070,102.679764 187.305969,94.353058 187.173325,86.030235 
	C187.109375,82.018707 188.672058,80.169373 192.765808,80.346283 
	C199.888855,80.654091 207.018265,80.814575 214.470764,81.262024 
z"/>
<path fill="#020202" opacity="1.000000" stroke="none" 
	d="
M229.835510,123.340012 
	C219.575485,123.339661 219.571381,123.339661 219.576569,113.740005 
	C219.580505,106.425613 219.718735,99.108536 219.557434,91.797935 
	C219.472580,87.952789 221.006805,86.379883 224.828629,86.392853 
	C239.912598,86.444061 237.066025,85.925507 237.233109,97.999908 
	C237.318192,104.149345 237.235840,110.301155 237.223679,116.451881 
	C237.210022,123.364670 237.207321,123.364662 229.835510,123.340012 
z"/>
<path fill="#080808" opacity="1.000000" stroke="none" 
	d="
M230.804840,68.680603 
	C235.749069,69.480698 237.689590,72.319725 237.169693,76.784531 
	C236.717697,80.666283 234.000778,82.650490 230.428345,82.808586 
	C226.733826,82.972092 224.226547,80.768738 223.281876,77.141525 
	C222.162186,72.842293 225.009232,69.532310 230.804840,68.680603 
z"/>
<path fill="#F7F7F7" opacity="1.000000" stroke="none" 
	d="
M103.814514,96.741989 
	C108.042877,96.196648 111.987854,95.864159 115.929947,95.895348 
	C118.483673,95.915543 119.610764,97.270912 118.115540,99.798851 
	C114.751503,105.486343 111.424728,111.197533 107.935059,116.807182 
	C107.438622,117.605202 105.777962,118.543922 105.252785,118.270691 
	C104.295982,117.772903 103.195023,116.420052 103.187180,115.415878 
	C103.139503,109.314888 103.383377,103.211609 103.814514,96.741989 
z"/>
</svg>